<svg xmlns="http://www.w3.org/2000/svg" xmlns:xlink="http://www.w3.org/1999/xlink" width="500" zoomAndPan="magnify" viewBox="0 0 375 374.999991" height="500" preserveAspectRatio="xMidYMid meet" version="1.0"><defs><g/><clipPath id="19a9654519"><path d="M 187.5 0 C 83.945312 0 0 83.945312 0 187.5 C 0 291.054688 83.945312 375 187.5 375 C 291.054688 375 375 291.054688 375 187.5 C 375 83.945312 291.054688 0 187.5 0 Z M 187.5 0 " clip-rule="nonzero"/></clipPath><clipPath id="671da78595"><path d="M 57 146.746094 L 155 146.746094 L 155 228.496094 L 57 228.496094 Z M 57 146.746094 " clip-rule="nonzero"/></clipPath><clipPath id="72458d4873"><path d="M 61 150 L 151 150 L 151 225 L 61 225 Z M 61 150 " clip-rule="nonzero"/></clipPath><clipPath id="ac4734d681"><path d="M 210 146.746094 L 307 146.746094 L 307 228.496094 L 210 228.496094 Z M 210 146.746094 " clip-rule="nonzero"/></clipPath><clipPath id="69328ca985"><path d="M 214 150 L 303 150 L 303 225 L 214 225 Z M 214 150 " clip-rule="nonzero"/></clipPath></defs><g clip-path="url(#19a9654519)"><rect x="-37.5" width="450" fill="#43a0a0" y="-37.499999" height="449.999989" fill-opacity="1"/></g><g fill="#ffffff" fill-opacity="1"><g transform="translate(116.738397, 194.767034)"><g><path d="M 128.953125 -47.0625 C 128.953125 -31.09375 123.910156 -18.914062 113.828125 -10.53125 C 103.742188 -2.15625 89.414062 2.03125 70.84375 2.03125 C 52.269531 2.03125 37.914062 -2.15625 27.78125 -10.53125 C 17.644531 -18.914062 12.578125 -31.09375 12.578125 -47.0625 L 12.578125 -116.890625 L 50.125 -116.890625 L 50.125 -47.5625 C 50.125 -41 51.878906 -35.765625 55.390625 -31.859375 C 58.898438 -27.953125 63.992188 -26 70.671875 -26 C 77.359375 -26 82.484375 -27.976562 86.046875 -31.9375 C 89.617188 -35.90625 91.40625 -41.113281 91.40625 -47.5625 L 91.40625 -116.890625 L 128.953125 -116.890625 Z M 128.953125 -47.0625 "/></g></g></g><g fill="#ffffff" fill-opacity="1"><g transform="translate(121.409922, 292.625083)"><g><path d="M 68.296875 -118.921875 C 85.628906 -118.921875 99.332031 -114.585938 109.40625 -105.921875 C 119.488281 -97.265625 124.53125 -84.894531 124.53125 -68.8125 L 88.6875 -68.8125 C 88.6875 -75.601562 86.898438 -80.976562 83.328125 -84.9375 C 79.765625 -88.90625 74.695312 -90.890625 68.125 -90.890625 C 60.539062 -90.890625 54.960938 -88.507812 51.390625 -83.75 C 47.828125 -79 46.046875 -72.375 46.046875 -63.875 L 46.046875 -53 C 46.046875 -44.625 47.828125 -38.03125 51.390625 -33.21875 C 54.960938 -28.40625 60.425781 -26 67.78125 -26 C 75.03125 -26 80.523438 -27.863281 84.265625 -31.59375 C 88.003906 -35.332031 89.875 -40.601562 89.875 -47.40625 L 124.53125 -47.40625 C 124.53125 -31.425781 119.628906 -19.191406 109.828125 -10.703125 C 100.035156 -2.210938 86.191406 2.03125 68.296875 2.03125 C 48.359375 2.03125 33.265625 -3.0625 23.015625 -13.25 C 12.765625 -23.445312 7.640625 -38.507812 7.640625 -58.4375 C 7.640625 -78.375 12.765625 -93.4375 23.015625 -103.625 C 33.265625 -113.820312 48.359375 -118.921875 68.296875 -118.921875 Z M 68.296875 -118.921875 "/></g></g></g><g clip-path="url(#671da78595)"><path fill="#ecf8f8" d="M 105.992188 228.300781 C 187.539062 174.78125 144.214844 146.746094 127.652344 146.746094 C 111.089844 146.746094 105.992188 159.496094 105.992188 159.496094 C 105.992188 159.496094 100.890625 146.746094 84.335938 146.746094 C 67.765625 146.746094 24.445312 174.78125 105.992188 228.300781 Z M 105.992188 228.300781 " fill-opacity="1" fill-rule="nonzero"/></g><g clip-path="url(#72458d4873)"><path fill="#43a0a0" d="M 105.992188 225.046875 C 181.03125 175.796875 141.167969 150 125.925781 150 C 110.683594 150 105.992188 161.730469 105.992188 161.730469 C 105.992188 161.730469 101.300781 150 86.066406 150 C 70.820312 150 30.953125 175.796875 105.992188 225.046875 Z M 105.992188 225.046875 " fill-opacity="1" fill-rule="nonzero"/></g><g clip-path="url(#ac4734d681)"><path fill="#43a0a0" d="M 258.257812 228.300781 C 339.804688 174.78125 296.484375 146.746094 279.921875 146.746094 C 263.355469 146.746094 258.257812 159.496094 258.257812 159.496094 C 258.257812 159.496094 253.160156 146.746094 236.601562 146.746094 C 220.035156 146.746094 176.710938 174.78125 258.257812 228.300781 Z M 258.257812 228.300781 " fill-opacity="1" fill-rule="nonzero"/></g><g clip-path="url(#69328ca985)"><path fill="#ecf8f8" d="M 258.261719 225.046875 C 333.300781 175.796875 293.4375 150 278.195312 150 C 262.953125 150 258.261719 161.730469 258.261719 161.730469 C 258.261719 161.730469 253.566406 150 238.332031 150 C 223.085938 150 183.222656 175.796875 258.261719 225.046875 Z M 258.261719 225.046875 " fill-opacity="1" fill-rule="nonzero"/></g></svg>